<svg width="20" height="20" viewBox="0 0 20 20" fill="none" xmlns="http://www.w3.org/2000/svg">
<path d="M18.2155 9.25002C17.8577 5.29827 14.7017 2.1423 10.7499 1.78445V0H9.2499V1.78445C5.29815 2.1423 2.14222 5.29827 1.78437 9.25002H0V10.75H1.78441C2.14226 14.7018 5.29823 17.8578 9.24998 18.2156V20H10.75V18.2156C14.7017 17.8577 17.8577 14.7018 18.2155 10.75H19.9999V9.25002H18.2155ZM9.2499 3.29191V4.80382C6.95417 5.13366 5.13354 6.9542 4.8037 9.25002H3.29183C3.63878 6.12604 6.126 3.63886 9.2499 3.29191ZM9.2499 16.7081C6.126 16.3611 3.63874 13.8739 3.29179 10.75H4.8037C5.13354 13.0457 6.95409 14.8663 9.2499 15.1962V16.7081ZM6.24991 10C6.24991 7.93225 7.93217 6.25003 9.9999 6.25003C12.0677 6.25003 13.7499 7.93229 13.7499 10C13.7499 12.0678 12.0677 13.75 9.9999 13.75C7.93217 13.75 6.24991 12.0677 6.24991 10ZM10.7499 16.7081V15.1962C13.0457 14.8663 14.8663 13.0458 15.1961 10.75H16.708C16.3611 13.8739 13.8739 16.3611 10.7499 16.7081ZM15.1962 9.25002C14.8663 6.95428 13.0458 5.13366 10.75 4.80382V3.29191C13.8739 3.63886 16.3611 6.12604 16.7081 9.25002H15.1962Z" fill="#FF0000"/>
</svg>
