<svg width="179" height="25" viewBox="0 0 179 25" fill="none" xmlns="http://www.w3.org/2000/svg">
<path d="M2.475 12.475C2.475 13.2583 2.56667 13.9917 2.75 14.675C2.95 15.3417 3.23333 15.925 3.6 16.425C3.96667 16.9083 4.425 17.2917 4.975 17.575C5.525 17.8583 6.15 18 6.85 18C7.48333 18 8.06667 17.8917 8.6 17.675C9.13333 17.4417 9.6 17.1083 10 16.675C10.4 16.2417 10.7083 15.7167 10.925 15.1C11.1583 14.4667 11.275 13.7417 11.275 12.925C11.3083 12.1083 11.2417 11.35 11.075 10.65C10.9083 9.93333 10.6417 9.30833 10.275 8.775C9.90833 8.24167 9.43333 7.825 8.85 7.525C8.28333 7.20833 7.61667 7.05 6.85 7.05C6.16667 7.05 5.55 7.2 5 7.5C4.46667 7.78333 4.00833 8.175 3.625 8.675C3.25833 9.15833 2.975 9.73333 2.775 10.4C2.575 11.05 2.475 11.7417 2.475 12.475ZM2.475 19H0.975V0.999999H2.475V8.125C2.95833 7.325 3.61667 6.725 4.45 6.325C5.3 5.90833 6.18333 5.7 7.1 5.7C8.08333 5.7 8.93333 5.89167 9.65 6.275C10.3833 6.64167 10.9833 7.14167 11.45 7.775C11.9333 8.39167 12.2917 9.11667 12.525 9.95C12.7583 10.7833 12.875 11.65 12.875 12.55C12.875 13.5 12.7667 14.3917 12.55 15.225C12.3333 16.0583 11.9833 16.7833 11.5 17.4C11.0333 18 10.4333 18.475 9.7 18.825C8.96667 19.175 8.075 19.35 7.025 19.35C6.60833 19.35 6.18333 19.2917 5.75 19.175C5.31667 19.0583 4.89167 18.8917 4.475 18.675C4.075 18.4583 3.7 18.1917 3.35 17.875C3.01667 17.5417 2.74167 17.1583 2.525 16.725H2.475V19ZM24.8582 6.05H26.3582V19H24.8582V17.2C24.6582 17.4333 24.4332 17.675 24.1832 17.925C23.9332 18.175 23.6415 18.4083 23.3082 18.625C22.9915 18.825 22.6165 18.9917 22.1832 19.125C21.7499 19.275 21.2499 19.35 20.6832 19.35C19.8165 19.35 19.0915 19.2333 18.5082 19C17.9249 18.75 17.4499 18.4083 17.0832 17.975C16.7332 17.5417 16.4749 17.0417 16.3082 16.475C16.1582 15.8917 16.0832 15.2583 16.0832 14.575V6.05H17.5832V14.55C17.5832 15.6667 17.8415 16.525 18.3582 17.125C18.8749 17.7083 19.7249 18 20.9082 18C21.5249 18 22.0749 17.8833 22.5582 17.65C23.0582 17.4 23.4749 17.0583 23.8082 16.625C24.1415 16.1917 24.3999 15.675 24.5832 15.075C24.7665 14.475 24.8582 13.8167 24.8582 13.1V6.05ZM29.7604 19V6.05H31.2604V19H29.7604ZM29.6854 3.225V0.999999H31.3354V3.225H29.6854ZM35.3023 19V0.999999H36.8023V19H35.3023ZM45.1693 19.05C44.986 19.0833 44.7443 19.1417 44.4443 19.225C44.1443 19.3083 43.811 19.35 43.4443 19.35C42.6943 19.35 42.1193 19.1667 41.7193 18.8C41.336 18.4167 41.1443 17.7417 41.1443 16.775V7.3H39.3193V6.05H41.1443V2.45H42.6443V6.05H45.0693V7.3H42.6443V16.175C42.6443 16.4917 42.6527 16.7667 42.6693 17C42.686 17.2333 42.736 17.425 42.8193 17.575C42.9027 17.725 43.0277 17.8333 43.1943 17.9C43.3777 17.9667 43.6277 18 43.9443 18C44.1443 18 44.3443 17.9833 44.5443 17.95C44.761 17.9167 44.9693 17.875 45.1693 17.825V19.05ZM56.2104 12.475C56.2104 13.2583 56.302 13.9917 56.4854 14.675C56.6854 15.3417 56.9687 15.925 57.3354 16.425C57.702 16.9083 58.1604 17.2917 58.7104 17.575C59.2604 17.8583 59.8854 18 60.5854 18C61.2187 18 61.802 17.8917 62.3354 17.675C62.8687 17.4417 63.3354 17.1083 63.7354 16.675C64.1354 16.2417 64.4437 15.7167 64.6604 15.1C64.8937 14.4667 65.0104 13.7417 65.0104 12.925C65.0437 12.1083 64.977 11.35 64.8104 10.65C64.6437 9.93333 64.377 9.30833 64.0104 8.775C63.6437 8.24167 63.1687 7.825 62.5854 7.525C62.0187 7.20833 61.352 7.05 60.5854 7.05C59.902 7.05 59.2854 7.2 58.7354 7.5C58.202 7.78333 57.7437 8.175 57.3604 8.675C56.9937 9.15833 56.7104 9.73333 56.5104 10.4C56.3104 11.05 56.2104 11.7417 56.2104 12.475ZM56.2104 19H54.7104V0.999999H56.2104V8.125C56.6937 7.325 57.352 6.725 58.1854 6.325C59.0354 5.90833 59.9187 5.7 60.8354 5.7C61.8187 5.7 62.6687 5.89167 63.3854 6.275C64.1187 6.64167 64.7187 7.14167 65.1854 7.775C65.6687 8.39167 66.027 9.11667 66.2604 9.95C66.4937 10.7833 66.6104 11.65 66.6104 12.55C66.6104 13.5 66.502 14.3917 66.2854 15.225C66.0687 16.0583 65.7187 16.7833 65.2354 17.4C64.7687 18 64.1687 18.475 63.4354 18.825C62.702 19.175 61.8104 19.35 60.7604 19.35C60.3437 19.35 59.9187 19.2917 59.4854 19.175C59.052 19.0583 58.627 18.8917 58.2104 18.675C57.8104 18.4583 57.4354 18.1917 57.0854 17.875C56.752 17.5417 56.477 17.1583 56.2604 16.725H56.2104V19ZM69.7186 22.525C69.9186 22.5583 70.1186 22.5917 70.3186 22.625C70.5352 22.6583 70.7519 22.675 70.9686 22.675C71.3852 22.675 71.7269 22.5417 71.9936 22.275C72.2602 22.0083 72.4769 21.6833 72.6436 21.3C72.8269 20.9333 72.9769 20.5417 73.0936 20.125C73.2102 19.725 73.3436 19.3833 73.4936 19.1L68.4686 6.05H70.1436L74.2936 17.175L78.4436 6.05H80.0686L75.2436 18.825C74.9436 19.6417 74.6519 20.375 74.3686 21.025C74.1019 21.675 73.8102 22.225 73.4936 22.675C73.1936 23.1417 72.8519 23.4917 72.4686 23.725C72.1019 23.975 71.6602 24.1 71.1436 24.1C70.8769 24.1 70.6186 24.0833 70.3686 24.05C70.1352 24.0167 69.9186 23.975 69.7186 23.925V22.525ZM95.9116 16.3999C96.7987 16.3999 97.5189 16.3022 98.0723 16.1069C99.1221 15.7326 99.647 15.0368 99.647 14.0195C99.647 13.4255 99.3866 12.9657 98.8657 12.6401C98.3449 12.3228 97.527 12.042 96.4121 11.7979L94.5078 11.3706C92.6361 10.9474 91.3421 10.4876 90.626 9.99121C89.4134 9.16113 88.8071 7.86312 88.8071 6.09717C88.8071 4.48584 89.3931 3.14714 90.5649 2.08105C91.7368 1.01497 93.458 0.481934 95.7285 0.481934C97.6247 0.481934 99.2401 0.986491 100.575 1.99561C101.917 2.99658 102.621 4.45329 102.687 6.36572H99.0732C99.0081 5.28337 98.5361 4.51432 97.6572 4.05859C97.0713 3.75749 96.3429 3.60693 95.4722 3.60693C94.5037 3.60693 93.7306 3.80225 93.1528 4.19287C92.575 4.5835 92.2861 5.12874 92.2861 5.82861C92.2861 6.47152 92.571 6.95166 93.1406 7.26904C93.5068 7.48063 94.2881 7.72884 95.4844 8.01367L98.585 8.7583C99.944 9.08382 100.969 9.51921 101.661 10.0645C102.735 10.9108 103.272 12.1356 103.272 13.7388C103.272 15.3826 102.642 16.7498 101.38 17.8403C100.127 18.9227 98.353 19.4639 96.0581 19.4639C93.7144 19.4639 91.8711 18.9308 90.5283 17.8647C89.1855 16.7905 88.5142 15.3175 88.5142 13.4458H92.103C92.217 14.2677 92.4408 14.8822 92.7744 15.2891C93.3848 16.0296 94.4305 16.3999 95.9116 16.3999ZM111.866 16.522V19.1221L110.218 19.1831C108.574 19.2401 107.451 18.9552 106.849 18.3286C106.458 17.9299 106.263 17.3154 106.263 16.4854V8.29443H104.408V5.81641H106.263V2.10547H109.706V5.81641H111.866V8.29443H109.706V15.3257C109.706 15.8709 109.775 16.2127 109.913 16.3511C110.051 16.4813 110.475 16.5464 111.183 16.5464C111.288 16.5464 111.398 16.5464 111.512 16.5464C111.634 16.5382 111.752 16.5301 111.866 16.522ZM122.633 17.1201C122.6 17.1608 122.519 17.2829 122.389 17.4863C122.258 17.6898 122.104 17.8688 121.925 18.0234C121.38 18.5117 120.851 18.8454 120.338 19.0244C119.833 19.2035 119.239 19.293 118.556 19.293C116.586 19.293 115.26 18.585 114.576 17.1689C114.194 16.3877 114.002 15.2362 114.002 13.7144V5.69434H117.567V13.7144C117.567 14.4712 117.656 15.0409 117.835 15.4233C118.153 16.0988 118.775 16.4365 119.703 16.4365C120.891 16.4365 121.705 15.9564 122.145 14.9961C122.372 14.4753 122.486 13.7876 122.486 12.9331V5.69434H126.014V19H122.633V17.1201ZM141.493 1.03125V19H138.111V17.1567C137.615 17.9461 137.049 18.5199 136.415 18.8779C135.78 19.236 134.99 19.415 134.046 19.415C132.492 19.415 131.182 18.7884 130.116 17.5352C129.058 16.2738 128.529 14.6584 128.529 12.689C128.529 10.4185 129.05 8.63216 130.091 7.33008C131.141 6.02799 132.541 5.37695 134.291 5.37695C135.096 5.37695 135.812 5.55599 136.439 5.91406C137.066 6.264 137.574 6.75228 137.965 7.37891V1.03125H141.493ZM132.118 12.4326C132.118 13.6615 132.362 14.6421 132.85 15.3745C133.33 16.1151 134.063 16.4854 135.047 16.4854C136.032 16.4854 136.781 16.1191 137.293 15.3867C137.806 14.6543 138.062 13.7062 138.062 12.5425C138.062 10.9149 137.652 9.75114 136.83 9.05127C136.325 8.62809 135.739 8.4165 135.072 8.4165C134.055 8.4165 133.306 8.80306 132.826 9.57617C132.354 10.3411 132.118 11.2933 132.118 12.4326ZM148.243 5.69434V19H144.715V5.69434H148.243ZM148.243 0.896973V4.10742H144.715V0.896973H148.243ZM162.721 7.37891C163.844 8.78678 164.405 10.451 164.405 12.3716C164.405 14.3247 163.844 15.9971 162.721 17.3887C161.598 18.7721 159.893 19.4639 157.606 19.4639C155.319 19.4639 153.614 18.7721 152.491 17.3887C151.368 15.9971 150.807 14.3247 150.807 12.3716C150.807 10.451 151.368 8.78678 152.491 7.37891C153.614 5.97103 155.319 5.26709 157.606 5.26709C159.893 5.26709 161.598 5.97103 162.721 7.37891ZM157.594 8.20898C156.576 8.20898 155.791 8.57113 155.238 9.29541C154.693 10.0116 154.42 11.0369 154.42 12.3716C154.42 13.7062 154.693 14.7357 155.238 15.46C155.791 16.1842 156.576 16.5464 157.594 16.5464C158.611 16.5464 159.392 16.1842 159.938 15.46C160.483 14.7357 160.755 13.7062 160.755 12.3716C160.755 11.0369 160.483 10.0116 159.938 9.29541C159.392 8.57113 158.611 8.20898 157.594 8.20898ZM171.778 19.5127C170.452 19.5127 169.26 19.1221 168.202 18.3408C167.144 17.5514 166.537 16.404 166.383 14.8984H169.85C169.931 15.4193 170.151 15.8424 170.509 16.168C170.867 16.4935 171.343 16.6562 171.937 16.6562C173.084 16.6562 173.89 16.0215 174.354 14.752C174.606 14.0521 174.765 13.0308 174.83 11.688C174.513 12.0868 174.175 12.3919 173.817 12.6035C173.166 12.9941 172.364 13.1895 171.412 13.1895C170.004 13.1895 168.755 12.7052 167.665 11.7368C166.574 10.7603 166.029 9.35645 166.029 7.52539C166.029 5.62923 166.574 4.09521 167.665 2.92334C168.763 1.74333 170.187 1.15332 171.937 1.15332C174.631 1.15332 176.478 2.34554 177.479 4.72998C178.049 6.08089 178.333 7.85905 178.333 10.0645C178.333 12.2048 178.061 13.991 177.516 15.4233C176.474 18.1496 174.562 19.5127 171.778 19.5127ZM170.558 4.55908C169.89 5.07992 169.557 5.96289 169.557 7.20801C169.557 8.25781 169.768 9.0472 170.191 9.57617C170.623 10.097 171.282 10.3574 172.169 10.3574C172.649 10.3574 173.101 10.2191 173.524 9.94238C174.313 9.43783 174.708 8.56299 174.708 7.31787C174.708 6.31689 174.472 5.52344 174 4.9375C173.536 4.35156 172.897 4.05859 172.083 4.05859C171.489 4.05859 170.981 4.22542 170.558 4.55908Z" fill="#484848"/>
</svg>
